<svg id="eqUdEb8yDaj1" xmlns="http://www.w3.org/2000/svg" xmlns:xlink="http://www.w3.org/1999/xlink" viewBox="0 0 300 300" shape-rendering="geometricPrecision" text-rendering="geometricPrecision" project-id="d7a558dd19d7493ba59c1a84d841f6cf" export-id="ec0b64c94a69444fa9868e982710c433" cached="false"><path d="M53.04685,65.51603c2.45085,12.25423-2.4768,71.12952-2.11342,71.85629.49814.99628.68207-2.12115,1.05671-3.17013c1.50404-4.21132,2.81192-8.43576,4.22684-12.68052" transform="matrix(3.982061 0 0 2.802867-162.721128-164.184919)" fill="none" stroke="#3a533f" stroke-width="5"/><path d="M56.74533,110.95456c4.5648-11.41199,30.57223-9.31788,39.09827-19.54914" transform="matrix(3.982061 0 0 2.802867-207.223726-163.39405)" fill="none" stroke="#3a533f" stroke-width="5"/><path d="M94.7869,59.70412C90.33875,81.94488,84.2198,106.366,84.2198,128.91863" transform="matrix(3.982061 0 0 2.802867-214.383767-148.369075)" fill="none" stroke="#3a533f" stroke-width="5"/><path d="M121.20465,87.70694c-7.84195,4.48111-14.6049,10.49483-22.19091,15.3223-4.24262,2.69985-8.95504,4.68998-13.20888,7.39697-.74292.47277-2.73609.96239-2.11342,1.58507c3.47029,3.47029,27.25359-2.72622,36.4565,7.39697c8.47118,9.3183-3.34337,27.30294,3.69849,38.56992" transform="matrix(3.982061 0 0 2.802867-211.903679-161.765433)" fill="none" stroke="#3a533f" stroke-width="5"/></svg>
