<svg width="356" height="60" viewBox="0 0 356 60" fill="none" xmlns="http://www.w3.org/2000/svg">
<path d="M21.984 18.44V41H15.712V31.944H8.064V41H1.792V18.44H8.064V26.92H15.712V18.44H21.984ZM39.0452 41.224C37.2532 41.224 35.6426 40.8507 34.2132 40.104C32.8052 39.3573 31.6959 38.2907 30.8852 36.904C30.0746 35.5173 29.6692 33.8853 29.6692 32.008C29.6692 30.152 30.0746 28.5307 30.8852 27.144C31.7172 25.7573 32.8372 24.6907 34.2452 23.944C35.6746 23.1973 37.2852 22.824 39.0772 22.824C40.8692 22.824 42.4692 23.1973 43.8772 23.944C45.3066 24.6907 46.4266 25.7573 47.2372 27.144C48.0693 28.5307 48.4853 30.152 48.4853 32.008C48.4853 33.864 48.0693 35.496 47.2372 36.904C46.4266 38.2907 45.3066 39.3573 43.8772 40.104C42.4479 40.8507 40.8372 41.224 39.0452 41.224ZM39.0452 35.784C39.9199 35.784 40.6452 35.464 41.2212 34.824C41.8186 34.1627 42.1172 33.224 42.1172 32.008C42.1172 30.792 41.8186 29.864 41.2212 29.224C40.6452 28.584 39.9306 28.264 39.0772 28.264C38.2239 28.264 37.5092 28.584 36.9332 29.224C36.3572 29.864 36.0692 30.792 36.0692 32.008C36.0692 33.2453 36.3466 34.184 36.9012 34.824C37.4559 35.464 38.1706 35.784 39.0452 35.784ZM74.525 23.048V41H68.221V38.44C67.6877 39.2507 66.9517 39.912 66.013 40.424C65.0743 40.9147 63.997 41.16 62.781 41.16C60.6903 41.16 59.037 40.4773 57.821 39.112C56.6263 37.7253 56.029 35.848 56.029 33.48V23.048H62.269V32.68C62.269 33.704 62.5357 34.5147 63.069 35.112C63.6237 35.688 64.349 35.976 65.245 35.976C66.1623 35.976 66.8877 35.688 67.421 35.112C67.9543 34.5147 68.221 33.704 68.221 32.68V23.048H74.525ZM90.8625 41.224C89.2412 41.224 87.7905 40.9573 86.5105 40.424C85.2518 39.8693 84.2492 39.1227 83.5025 38.184C82.7772 37.224 82.3718 36.1467 82.2865 34.952H88.3665C88.4518 35.528 88.7185 35.976 89.1665 36.296C89.6145 36.616 90.1692 36.776 90.8305 36.776C91.3425 36.776 91.7478 36.6693 92.0465 36.456C92.3452 36.2427 92.4945 35.9653 92.4945 35.624C92.4945 35.176 92.2492 34.8453 91.7585 34.632C91.2678 34.4187 90.4572 34.184 89.3265 33.928C88.0465 33.672 86.9798 33.384 86.1265 33.064C85.2732 32.744 84.5265 32.2213 83.8865 31.496C83.2678 30.7707 82.9585 29.7893 82.9585 28.552C82.9585 27.4853 83.2465 26.5253 83.8225 25.672C84.3985 24.7973 85.2412 24.104 86.3505 23.592C87.4812 23.08 88.8358 22.824 90.4145 22.824C92.7612 22.824 94.6065 23.4 95.9505 24.552C97.2945 25.704 98.0732 27.2187 98.2865 29.096H92.6225C92.5158 28.52 92.2598 28.0827 91.8545 27.784C91.4705 27.464 90.9478 27.304 90.2865 27.304C89.7745 27.304 89.3798 27.4 89.1025 27.592C88.8465 27.784 88.7185 28.0507 88.7185 28.392C88.7185 28.8187 88.9638 29.1493 89.4545 29.384C89.9452 29.5973 90.7345 29.8213 91.8225 30.056C93.1238 30.3333 94.2012 30.6427 95.0545 30.984C95.9292 31.3253 96.6865 31.88 97.3265 32.648C97.9878 33.3947 98.3185 34.4187 98.3185 35.72C98.3185 36.7653 98.0092 37.704 97.3905 38.536C96.7932 39.368 95.9292 40.0293 94.7985 40.52C93.6892 40.9893 92.3772 41.224 90.8625 41.224ZM123.674 31.816C123.674 32.3067 123.642 32.7973 123.578 33.288H111.706C111.77 34.2693 112.037 35.0053 112.506 35.496C112.997 35.9653 113.615 36.2 114.362 36.2C115.407 36.2 116.154 35.7307 116.602 34.792H123.29C123.013 36.0293 122.469 37.1387 121.658 38.12C120.869 39.08 119.866 39.8373 118.65 40.392C117.434 40.9467 116.09 41.224 114.618 41.224C112.847 41.224 111.269 40.8507 109.882 40.104C108.517 39.3573 107.439 38.2907 106.65 36.904C105.882 35.5173 105.498 33.8853 105.498 32.008C105.498 30.1307 105.882 28.5093 106.65 27.144C107.418 25.7573 108.485 24.6907 109.85 23.944C111.237 23.1973 112.826 22.824 114.618 22.824C116.389 22.824 117.957 23.1867 119.322 23.912C120.687 24.6373 121.754 25.6827 122.522 27.048C123.29 28.392 123.674 29.9813 123.674 31.816ZM117.274 30.248C117.274 29.48 117.018 28.8827 116.506 28.456C115.994 28.008 115.354 27.784 114.586 27.784C113.818 27.784 113.189 27.9973 112.698 28.424C112.207 28.8293 111.887 29.4373 111.738 30.248H117.274ZM142.593 41L137.633 33.64V41H131.361V17.32H137.633V30.088L142.593 23.048H150.113L143.041 32.072L150.241 41H142.593ZM174.352 31.816C174.352 32.3067 174.32 32.7973 174.256 33.288H162.384C162.448 34.2693 162.714 35.0053 163.184 35.496C163.674 35.9653 164.293 36.2 165.04 36.2C166.085 36.2 166.832 35.7307 167.28 34.792H173.968C173.69 36.0293 173.146 37.1387 172.336 38.12C171.546 39.08 170.544 39.8373 169.328 40.392C168.112 40.9467 166.768 41.224 165.296 41.224C163.525 41.224 161.946 40.8507 160.56 40.104C159.194 39.3573 158.117 38.2907 157.328 36.904C156.56 35.5173 156.176 33.8853 156.176 32.008C156.176 30.1307 156.56 28.5093 157.328 27.144C158.096 25.7573 159.162 24.6907 160.528 23.944C161.914 23.1973 163.504 22.824 165.296 22.824C167.066 22.824 168.634 23.1867 170 23.912C171.365 24.6373 172.432 25.6827 173.2 27.048C173.968 28.392 174.352 29.9813 174.352 31.816ZM167.952 30.248C167.952 29.48 167.696 28.8827 167.184 28.456C166.672 28.008 166.032 27.784 165.264 27.784C164.496 27.784 163.866 27.9973 163.376 28.424C162.885 28.8293 162.565 29.4373 162.416 30.248H167.952ZM199.19 31.816C199.19 32.3067 199.158 32.7973 199.094 33.288H187.222C187.286 34.2693 187.553 35.0053 188.022 35.496C188.513 35.9653 189.132 36.2 189.878 36.2C190.924 36.2 191.67 35.7307 192.118 34.792H198.806C198.529 36.0293 197.985 37.1387 197.174 38.12C196.385 39.08 195.382 39.8373 194.166 40.392C192.95 40.9467 191.606 41.224 190.134 41.224C188.364 41.224 186.785 40.8507 185.398 40.104C184.033 39.3573 182.956 38.2907 182.166 36.904C181.398 35.5173 181.014 33.8853 181.014 32.008C181.014 30.1307 181.398 28.5093 182.166 27.144C182.934 25.7573 184.001 24.6907 185.366 23.944C186.753 23.1973 188.342 22.824 190.134 22.824C191.905 22.824 193.473 23.1867 194.838 23.912C196.204 24.6373 197.27 25.6827 198.038 27.048C198.806 28.392 199.19 29.9813 199.19 31.816ZM192.79 30.248C192.79 29.48 192.534 28.8827 192.022 28.456C191.51 28.008 190.87 27.784 190.102 27.784C189.334 27.784 188.705 27.9973 188.214 28.424C187.724 28.8293 187.404 29.4373 187.254 30.248H192.79ZM213.149 25.544C213.64 24.712 214.333 24.0507 215.229 23.56C216.125 23.0693 217.181 22.824 218.397 22.824C219.826 22.824 221.117 23.1973 222.269 23.944C223.442 24.6907 224.36 25.7573 225.021 27.144C225.704 28.5307 226.045 30.152 226.045 32.008C226.045 33.864 225.704 35.496 225.021 36.904C224.36 38.2907 223.442 39.3573 222.269 40.104C221.117 40.8507 219.826 41.224 218.397 41.224C217.181 41.224 216.125 40.9787 215.229 40.488C214.354 39.9973 213.661 39.336 213.149 38.504V49.576H206.877V23.048H213.149V25.544ZM219.677 32.008C219.677 30.8347 219.357 29.928 218.717 29.288C218.098 28.6267 217.33 28.296 216.413 28.296C215.496 28.296 214.717 28.6267 214.077 29.288C213.458 29.9493 213.149 30.856 213.149 32.008C213.149 33.1813 213.458 34.0987 214.077 34.76C214.717 35.4213 215.496 35.752 216.413 35.752C217.33 35.752 218.098 35.4213 218.717 34.76C219.357 34.0773 219.677 33.16 219.677 32.008ZM236.915 21.384C235.806 21.384 234.91 21.0853 234.227 20.488C233.566 19.8693 233.235 19.1013 233.235 18.184C233.235 17.2453 233.566 16.4667 234.227 15.848C234.91 15.2293 235.806 14.92 236.915 14.92C238.003 14.92 238.878 15.2293 239.539 15.848C240.222 16.4667 240.563 17.2453 240.563 18.184C240.563 19.1013 240.222 19.8693 239.539 20.488C238.878 21.0853 238.003 21.384 236.915 21.384ZM240.019 23.048V41H233.747V23.048H240.019ZM260.455 22.888C262.524 22.888 264.167 23.5813 265.383 24.968C266.599 26.3333 267.207 28.1893 267.207 30.536V41H260.935V31.368C260.935 30.344 260.668 29.544 260.135 28.968C259.601 28.3707 258.887 28.072 257.991 28.072C257.052 28.072 256.316 28.3707 255.783 28.968C255.249 29.544 254.983 30.344 254.983 31.368V41H248.711V23.048H254.983V25.608C255.537 24.7973 256.284 24.1467 257.223 23.656C258.161 23.144 259.239 22.888 260.455 22.888ZM277.304 18.44H283.64L279.96 27.464H275.768L277.304 18.44Z" fill="black"/>
<rect x="296" width="60" height="60" rx="20" fill="#4351E7"/>
<path fill-rule="evenodd" clip-rule="evenodd" d="M345.99 29.957C345.99 31.3708 344.948 32.4644 343.767 32.4644H343.76H341.538L341.586 44.9775C341.586 45.1963 341.572 45.4071 341.552 45.6102V46.8756C341.552 48.6018 340.308 50 338.774 50H337.662H337.662C337.586 50 337.51 50 337.433 49.9922C337.336 50 337.239 50 337.142 50H337.142H333.218H325.562H318.772H314.89C314.785 50 314.681 49.9922 314.577 49.9844C314.494 49.9922 314.41 50 314.327 50H313.216C311.681 50 310.438 48.6018 310.438 46.8756V38.1273C310.438 38.0492 310.438 37.9789 310.445 37.9086V32.4644H308.222C306.972 32.4644 306 31.363 306 29.957C306 29.2541 306.208 28.6292 306.695 28.0824L324.509 10.6249C324.995 10.0781 325.55 10 326.036 10C326.523 10 327.078 10.1562 327.495 10.5468L334.891 17.8657V14.999C334.891 13.6165 335.884 12.4995 337.114 12.4995H339.336C340.565 12.4995 341.559 13.6165 341.559 14.999V24.4503L345.226 28.0824C345.781 28.6292 346.059 29.2541 345.99 29.957ZM326 36.0629C326.859 36.0629 327.692 35.769 328.36 35.23C328.564 35.0603 328.827 34.9786 329.092 35.003C329.223 35.0151 329.35 35.0528 329.466 35.1141C329.583 35.1753 329.686 35.2589 329.77 35.36C329.94 35.5642 330.021 35.8275 329.997 36.0919C329.973 36.3563 329.844 36.6003 329.64 36.77C328.619 37.6226 327.33 38.0896 326 38.0896C324.67 38.0896 323.381 37.6226 322.36 36.77C322.156 36.6003 322.027 36.3563 322.003 36.0919C321.979 35.8275 322.06 35.5642 322.23 35.36C322.4 35.1558 322.644 35.0274 322.908 35.003C323.173 34.9786 323.436 35.0603 323.64 35.23C324.308 35.769 325.141 36.0629 326 36.0629ZM323.556 31.8315C323.391 31.9414 323.198 32 323 32C322.735 32 322.48 31.8946 322.293 31.7071C322.105 31.5196 322 31.2652 322 31C322 30.8022 322.059 30.6089 322.169 30.4444C322.278 30.28 322.435 30.1518 322.617 30.0761C322.8 30.0004 323.001 29.9806 323.195 30.0192C323.389 30.0578 323.567 30.153 323.707 30.2929C323.847 30.4327 323.942 30.6109 323.981 30.8049C324.019 30.9989 324 31.2 323.924 31.3827C323.848 31.5654 323.72 31.7216 323.556 31.8315ZM328.444 30.1685C328.609 30.0586 328.802 30 329 30C329.265 30 329.52 30.1054 329.707 30.2929C329.895 30.4804 330 30.7348 330 31C330 31.1978 329.941 31.3911 329.831 31.5556C329.722 31.72 329.565 31.8482 329.383 31.9239C329.2 31.9996 328.999 32.0194 328.805 31.9808C328.611 31.9422 328.433 31.847 328.293 31.7071C328.153 31.5673 328.058 31.3891 328.019 31.1951C327.981 31.0011 328 30.8 328.076 30.6173C328.152 30.4346 328.28 30.2784 328.444 30.1685ZM320.444 24.6853C322.089 23.5865 324.022 23 326 23C327.313 23 328.614 23.2587 329.827 23.7612C331.04 24.2638 332.142 25.0003 333.071 25.9289C334 26.8575 334.736 27.9599 335.239 29.1732C335.741 30.3864 336 31.6868 336 33C336 34.9778 335.414 36.9112 334.315 38.5557C333.216 40.2002 331.654 41.4819 329.827 42.2388C328 42.9957 325.989 43.1937 324.049 42.8079C322.109 42.422 320.327 41.4696 318.929 40.0711C317.53 38.6725 316.578 36.8907 316.192 34.9509C315.806 33.0111 316.004 31.0004 316.761 29.1732C317.518 27.3459 318.8 25.7841 320.444 24.6853ZM321.555 39.6518C322.871 40.5308 324.418 41 326 41C328.122 41 330.157 40.1571 331.657 38.6569C333.157 37.1566 334 35.1217 334 33C334 31.4177 333.531 29.871 332.652 28.5554C331.773 27.2398 330.523 26.2145 329.061 25.609C327.6 25.0035 325.991 24.845 324.439 25.1537C322.887 25.4624 321.462 26.2243 320.343 27.3431C319.224 28.462 318.462 29.8874 318.154 31.4393C317.845 32.9911 318.003 34.5997 318.609 36.0615C319.214 37.5233 320.24 38.7727 321.555 39.6518Z" fill="black"/>
</svg>
